<svg width="15" height="15" viewBox="0 0 15 15" fill="none" xmlns="http://www.w3.org/2000/svg">
<path d="M14.0999 4.64287C13.8835 5.35715 14.1832 6.08804 14.7242 6.78572C15.0821 7.24253 15.0988 7.75747 14.7325 8.20598C14.1749 8.89535 13.9668 9.63455 14.1166 10.5232C14.2082 11.0465 13.9668 11.4701 13.4674 11.7026C13.2676 11.794 13.0762 11.902 12.8681 11.9933C12.4685 12.1678 12.1772 12.4502 12.0024 12.8488C11.9442 12.99 11.8776 13.1229 11.811 13.2641C11.4448 14.0116 11.1118 14.2109 10.2878 14.0947C9.58864 13.995 8.98935 14.1528 8.42335 14.5847C7.70754 15.1329 7.29969 15.1412 6.5922 14.593C6.01788 14.1528 5.41027 13.995 4.68613 14.103C3.88707 14.2192 3.52084 14.0282 3.21287 13.2724C2.91323 12.5664 2.45544 12.093 1.73962 11.8023C0.973867 11.4867 0.790751 11.1213 0.90728 10.2907C1.00716 9.59302 0.849015 8.99501 0.416196 8.43023C-0.133152 7.70764 -0.141475 7.31728 0.407873 6.59469C0.849015 6.01329 1.00716 5.40698 0.90728 4.6927C0.790751 3.89536 0.982191 3.52991 1.7313 3.22261C2.43047 2.9153 2.90491 2.45849 3.19623 1.7442C3.51252 0.980087 3.87875 0.789058 4.7111 0.905336C5.41027 1.005 6.00955 0.847197 6.57555 0.415305C7.29969 -0.132866 7.69921 -0.141172 8.40671 0.406999C8.98102 0.847197 9.58864 1.005 10.3128 0.897031C11.0952 0.780752 11.4697 0.971781 11.7694 1.68606C12.0773 2.44188 12.5768 2.94852 13.3342 3.23091C13.8835 3.44686 14.1665 3.86214 14.0999 4.64287ZM6.21764 9.36877C5.79314 8.8289 5.41027 8.30565 4.93583 7.85714C4.57792 7.51661 4.16175 7.49169 3.87043 7.7907C3.57078 8.098 3.59575 8.52159 3.96199 8.84551C4.6778 9.47674 5.25212 10.2159 5.80147 10.9801C6.34249 11.7442 6.34249 11.7442 6.75034 10.897C7.85736 8.61295 9.17246 6.48671 11.1118 4.79237C11.1368 4.77576 11.1534 4.75915 11.1701 4.73423C11.2284 4.65948 11.3282 4.58473 11.27 4.48506C11.2117 4.38539 11.0952 4.42692 11.0036 4.46845C10.7539 4.59303 10.5042 4.70931 10.2712 4.85881C8.98102 5.71429 7.99053 6.86047 7.0916 8.09801C6.80028 8.50498 6.51728 8.92857 6.21764 9.36877Z" fill="#039EEA"/>
</svg>
